<svg width="1000" height="1000" viewBox="0 0 1000 1000" fill="none" xmlns="http://www.w3.org/2000/svg">
<path d="M579.343 63.628C538.544 53.1829 464.807 176.402 423.185 182.749C420.275 183.193 417.373 183.678 414.48 184.203C375.998 191.186 339.114 205.323 305.721 225.917C269.819 248.06 238.679 277.219 214.138 311.676C189.597 346.134 172.152 385.192 162.83 426.549C153.508 467.906 152.499 510.724 159.861 552.48C167.223 594.236 182.808 634.084 205.697 669.677C228.586 705.269 258.316 735.885 293.135 759.72C327.954 783.555 367.156 800.127 408.432 808.458L429.944 700.29C402.999 694.851 377.407 684.033 354.677 668.474C331.948 652.914 312.54 632.928 297.597 609.693C282.655 586.458 272.481 560.445 267.675 533.186C262.869 505.928 263.528 477.976 269.614 450.978C275.699 423.98 287.087 398.483 303.108 375.989C319.128 353.495 339.456 334.459 362.894 320.005C386.331 305.55 412.404 295.968 439.575 291.824C466.745 287.681 494.465 289.059 521.099 295.877L546.894 193.613L579.343 63.628Z" fill="white"/>
<path d="M777.184 569.374C759.795 643.924 716.302 709.635 654.704 754.418C621.045 778.889 583.218 796.212 543.489 805.762C540.16 806.562 532.52 927.857 529.166 928.548C491.726 946.881 440.477 931.8 418.874 914.102L451.826 703.22C501.192 707.744 550.517 694.137 590.728 664.902C630.939 635.667 659.332 592.771 670.683 544.105C682.034 495.438 675.581 444.274 652.51 400.024C629.439 355.774 591.302 321.415 545.114 303.266C558.257 201.65 702.481 133.353 831.393 197.546C850.013 235.925 848.581 256.15 832.825 294.339C827.096 272.669 684.517 245.959 686.725 274.114C716.701 300.042 730.67 312.847 749.345 348.664C750.443 350.771 751.517 352.888 752.566 355.015C753.983 357.887 755.355 360.777 756.682 363.683C785.985 427.879 793.302 500.27 777.184 569.374Z" fill="#FF9100"/>
</svg>
